HIERARCHY
ROOT hips
{
  OFFSET 0 10.6860622 2.3727825e-15
  CHANNELS 6 Xposition Yposition Zposition Yrotation Xrotation Zrotation
  JOINT leftUpperLeg
  {
    OFFSET 0.6642549969 -0.9402397400000004 0
    CHANNELS 3 Yrotation Xrotation Zrotation
    JOINT leftLowerLeg
    {
      OFFSET 0 -3.997221335632195 0
      CHANNELS 3 Yrotation Xrotation Zrotation
      JOINT leftFoot
      {
        OFFSET -0.13777839790000004 -4.6145792000000005 -0.22186036399999998
        CHANNELS 3 Yrotation Xrotation Zrotation
        JOINT leftToes
        {
          OFFSET -0.03777410834999995 -0.9130806927000008 0.85230013
          CHANNELS 3 Yrotation Xrotation Zrotation
          End Site
          {
            OFFSET -0.03777410834999995 -0.9130806927000008 0.85230013
          }
        }
      }
    }
  }
  JOINT rightUpperLeg
  {
    OFFSET -0.6642778626 -0.9402397400000004 0
    CHANNELS 3 Yrotation Xrotation Zrotation
    JOINT rightLowerLeg
    {
      OFFSET 0 -3.997221452859387 0
      CHANNELS 3 Yrotation Xrotation Zrotation
      JOINT rightFoot
      {
        OFFSET 0.1377926176 -4.6145792000000005 -0.22185782299999995
        CHANNELS 3 Yrotation Xrotation Zrotation
        JOINT rightToes
        {
          OFFSET 0.037780746850000047 -0.9130806927000008 0.85230167
          CHANNELS 3 Yrotation Xrotation Zrotation
          End Site
          {
            OFFSET 0.037780746850000047 -0.9130806927000008 0.85230167
          }
        }
      }
    }
  }
  JOINT spine
  {
    OFFSET 0 0.13988381660000015 0
    CHANNELS 3 Yrotation Xrotation Zrotation
    JOINT chest
    {
      OFFSET 0 0.6191039003973773 0
      CHANNELS 3 Yrotation Xrotation Zrotation
      JOINT upperChest
      {
        OFFSET 0 0.9855186130586943 0
        CHANNELS 3 Yrotation Xrotation Zrotation
        JOINT leftShoulder
        {
          OFFSET 0.1807663869 1.5087829790000005 0
          CHANNELS 3 Yrotation Xrotation Zrotation
          JOINT leftUpperArm
          {
            OFFSET 0.5985063006419806 0 0
            CHANNELS 3 Yrotation Xrotation Zrotation
            JOINT leftLowerArm
            {
              OFFSET 2.2993332369501065 0 0
              CHANNELS 3 Yrotation Xrotation Zrotation
              JOINT leftHand
              {
                OFFSET 2.395047042602395 0 0
                CHANNELS 3 Yrotation Xrotation Zrotation
                JOINT leftIndexProximal
                {
                  OFFSET 0.5766295810000004 0.04556643899499946 0.17265095988184
                  CHANNELS 3 Yrotation Xrotation Zrotation
                  JOINT leftIndexIntermediate
                  {
                    OFFSET 0.2957229000000008 -0.019352197700001517 -0.007932640616999987
                    CHANNELS 3 Yrotation Xrotation Zrotation
                    JOINT leftIndexDistal
                    {
                      OFFSET 0.19008243099999922 -0.012484908149998475 -0.002786250786000012
                      CHANNELS 3 Yrotation Xrotation Zrotation
                      End Site
                      {
                        OFFSET 0.19008243099999922 -0.012484908149998475 -0.002786250786000012
                      }
                    }
                  }
                }
                JOINT leftMiddleProximal
                {
                  OFFSET 0.5834975091000001 0.0524350405149987 0.02204081888183999
                  CHANNELS 3 Yrotation Xrotation Zrotation
                  JOINT leftMiddleIntermediate
                  {
                    OFFSET 0.33880573540000003 -0.019871473270000717 -0.00000971183179999946
                    CHANNELS 3 Yrotation Xrotation Zrotation
                    JOINT leftMiddleDistal
                    {
                      OFFSET 0.20676022730000088 -0.012221336379999448 0.0001471936708000235
                      CHANNELS 3 Yrotation Xrotation Zrotation
                      End Site
                      {
                        OFFSET 0.20676022730000088 -0.012221336379999448 0.0001471936708000235
                      }
                    }
                  }
                }
                JOINT leftLittleProximal
                {
                  OFFSET 0.5344154683999995 -0.012880921405001189 -0.24414037221816004
                  CHANNELS 3 Yrotation Xrotation Zrotation
                  JOINT leftLittleIntermediate
                  {
                    OFFSET 0.21758961730000093 -0.011650919939999227 0.011893592810000034
                    CHANNELS 3 Yrotation Xrotation Zrotation
                    JOINT leftLittleDistal
                    {
                      OFFSET 0.1475273964999999 -0.008152365682999818 0.006001092492999946
                      CHANNELS 3 Yrotation Xrotation Zrotation
                      End Site
                      {
                        OFFSET 0.1475273964999999 -0.008152365682999818 0.006001092492999946
                      }
                    }
                  }
                }
                JOINT leftRingProximal
                {
                  OFFSET 0.5799399463000003 0.026911854694997794 -0.12150566991816003
                  CHANNELS 3 Yrotation Xrotation Zrotation
                  JOINT leftRingIntermediate
                  {
                    OFFSET 0.26167887460000006 -0.013480186499999602 0.010996293000000053
                    CHANNELS 3 Yrotation Xrotation Zrotation
                    JOINT leftRingDistal
                    {
                      OFFSET 0.17667108799999987 -0.008990287899999228 0.0055541023999999065
                      CHANNELS 3 Yrotation Xrotation Zrotation
                      End Site
                      {
                        OFFSET 0.17667108799999987 -0.008990287899999228 0.0055541023999999065
                      }
                    }
                  }
                }
                JOINT leftThumbProximal
                {
                  OFFSET 0.11018806699999972 -0.09448718900500053 0.17047963138184
                  CHANNELS 3 Yrotation Xrotation Zrotation
                  JOINT leftThumbIntermediate
                  {
                    OFFSET 0.31062601459999983 -0.08126270900000132 0.15443142000000007
                    CHANNELS 3 Yrotation Xrotation Zrotation
                    JOINT leftThumbDistal
                    {
                      OFFSET 0.21627175790000086 -0.08833193599999878 0.018771167799999988
                      CHANNELS 3 Yrotation Xrotation Zrotation
                      End Site
                      {
                        OFFSET 0.21627175790000086 -0.08833193599999878 0.018771167799999988
                      }
                    }
                  }
                }
              }
            }
          }
        }
        JOINT neck
        {
          OFFSET 0 1.5463305265074576 0
          CHANNELS 3 Yrotation Xrotation Zrotation
          JOINT head
          {
            OFFSET 0 0.8456443600000344 0
            CHANNELS 3 Yrotation Xrotation Zrotation
            JOINT leftEye
            {
              OFFSET 0.30408573140000006 0.5104519199999995 0.1276382305
              CHANNELS 3 Yrotation Xrotation Zrotation
              End Site
              {
                OFFSET 0.30408573140000006 0.5104519199999995 0.1276382305
              }
            }
            JOINT rightEye
            {
              OFFSET -0.30409491089999996 0.5104519199999995 0.1276379445
              CHANNELS 3 Yrotation Xrotation Zrotation
              End Site
              {
                OFFSET -0.30409491089999996 0.5104519199999995 0.1276379445
              }
            }
            JOINT jaw
            {
              OFFSET -3.155239131000001e-7 -0.11984121820000082 0.60178107
              CHANNELS 3 Yrotation Xrotation Zrotation
              End Site
              {
                OFFSET -3.155239131000001e-7 -0.11984121820000082 0.60178107
              }
            }
          }
        }
        JOINT rightShoulder
        {
          OFFSET -0.1807303465 1.5087829790000005 0
          CHANNELS 3 Yrotation Xrotation Zrotation
          JOINT rightUpperArm
          {
            OFFSET -0.5985063796536958 0 0
            CHANNELS 3 Yrotation Xrotation Zrotation
            JOINT rightLowerArm
            {
              OFFSET -2.2993322059002854 0 0
              CHANNELS 3 Yrotation Xrotation Zrotation
              JOINT rightHand
              {
                OFFSET -2.395045314457259 0 0
                CHANNELS 3 Yrotation Xrotation Zrotation
                JOINT rightIndexProximal
                {
                  OFFSET -0.5764487688300002 0.0441371204405987 0.17361932004999997
                  CHANNELS 3 Yrotation Xrotation Zrotation
                  JOINT rightIndexIntermediate
                  {
                    OFFSET -0.29573011380000047 -0.01934826376999843 -0.007698921482999974
                    CHANNELS 3 Yrotation Xrotation Zrotation
                    JOINT rightIndexDistal
                    {
                      OFFSET -0.19008373999999884 -0.012503266380000655 -0.0026365778999999897
                      CHANNELS 3 Yrotation Xrotation Zrotation
                      End Site
                      {
                        OFFSET -0.19008373999999884 -0.012503266380000655 -0.0026365778999999897
                      }
                    }
                  }
                }
                JOINT rightMiddleProximal
                {
                  OFFSET -0.5834852037300005 0.05211639405060153 0.02307162440000001
                  CHANNELS 3 Yrotation Xrotation Zrotation
                  JOINT rightMiddleIntermediate
                  {
                    OFFSET -0.33880114510000003 -0.019952774050000954 0.0002455003561999819
                    CHANNELS 3 Yrotation Xrotation Zrotation
                    JOINT rightMiddleDistal
                    {
                      OFFSET -0.20675694929999955 -0.012273788999999091 0.00030209124000002766
                      CHANNELS 3 Yrotation Xrotation Zrotation
                      End Site
                      {
                        OFFSET -0.20675694929999955 -0.012273788999999091 0.00030209124000002766
                      }
                    }
                  }
                }
                JOINT rightLittleProximal
                {
                  OFFSET -0.5346811737299992 -0.011214256288399227 -0.24363941305000003
                  CHANNELS 3 Yrotation Xrotation Zrotation
                  JOINT rightLittleIntermediate
                  {
                    OFFSET -0.21757715980000092 -0.011771559690000988 0.01201554387
                    CHANNELS 3 Yrotation Xrotation Zrotation
                    JOINT rightLittleDistal
                    {
                      OFFSET -0.1475201849000004 -0.00822055339600003 0.006082065407000015
                      CHANNELS 3 Yrotation Xrotation Zrotation
                      End Site
                      {
                        OFFSET -0.1475201849000004 -0.00822055339600003 0.006082065407000015
                      }
                    }
                  }
                }
                JOINT rightRingProximal
                {
                  OFFSET -0.5800810755299999 0.027657985680600072 -0.12066365025000003
                  CHANNELS 3 Yrotation Xrotation Zrotation
                  JOINT rightRingIntermediate
                  {
                    OFFSET -0.26166445029999974 -0.013623118409999302 0.011164098990000045
                    CHANNELS 3 Yrotation Xrotation Zrotation
                    JOINT rightRingDistal
                    {
                      OFFSET -0.17666387530000027 -0.009072900100000503 0.005668185599999959
                      CHANNELS 3 Yrotation Xrotation Zrotation
                      End Site
                      {
                        OFFSET -0.17666387530000027 -0.009072900100000503 0.005668185599999959
                      }
                    }
                  }
                }
                JOINT rightThumbProximal
                {
                  OFFSET -0.10997596379000074 -0.09577489355940072 0.16989765924999997
                  CHANNELS 3 Yrotation Xrotation Zrotation
                  JOINT rightThumbIntermediate
                  {
                    OFFSET -0.31036620999999986 -0.08229339117999834 0.15440884469999996
                    CHANNELS 3 Yrotation Xrotation Zrotation
                    JOINT rightThumbDistal
                    {
                      OFFSET -0.21631306399999906 -0.08825326400000111 0.018656797720000014
                      CHANNELS 3 Yrotation Xrotation Zrotation
                      End Site
                      {
                        OFFSET -0.21631306399999906 -0.08825326400000111 0.018656797720000014
                      }
                    }
                  }
                }
              }
            }
          }
        }
      }
    }
  }
}
MOTION
Frames: 8
Frame Time: 0.03333333333333333
0 11.682712981546562 0 0 0 0 0 0 -5.826343164929014 -0.3712483961610101 -3.6333298826370974 5.838118207697276 0 0 0 0 0 0 0 0 5.826343164929014 0.3712483961610101 -3.6333298826370974 -5.838118207697276 0 0 0 0 0 0 0 -4.610651315171937 0 0 3.0831277533083026 0 0 0 0 0 1.5275236235667615 0 0 0 0 0 0 0 0 0 0 0 0 0 0 0 0 0 0 0 0 0 0 0 0 0 0 0 0 0 0 0 0 0 0 0 0 0 0 0 0 0 0 0 0 0 0 0 0 0 0 0 0 0 0 0 0 1.5275236235667615 0 0 0 0 0 0 0 0 0 0 0 0 0 0 1.5275236235667615 0 0 0 0 0 0 0 0 0 0 0 0 0 0 0 0 0 0 0 0 0 0 0 0 0 0 0 0 0 0 0 0 0 0 0 0 0 0 0 0 0 0 0 0 0 0 0 0 0 0 0 0 0 0 0
-0.09432163268963717 0.8569663233739937 -0.5973805392740117 7.0167096047110005e-15 -7.0167096047110005e-15 180 -44.34671502799989 -59.568362370586826 57.6912923415193 25.802397056290356 74.2101235546597 -39.47797918136223 -19.605022281634877 55.02222790631742 3.5730742540195797 0 0 0 59.067236450746634 -61.58109222759477 -66.37860069483304 21.596690702005606 79.85651944290268 77.99386594946665 19.637489024674398 55.02203131468433 -3.572374906575141 0 0 0 -0.21396846706040382 1.0481442647509145 -0.043805187918652976 -1.2192053136819105 -14.65571993944552 0.19694906769989676 0 0 0 6.663051276057155 15.298220313339401 -20.11017047644744 -72.82636945866557 0.9365122887130827 -2.209633723759638 -32.22076532997412 -16.681652892994542 -5.066869805672942 -19.967689549808064 -46.658079382843695 -28.33227999030853 0 0 0 0 0 0 0 0 0 0 0 0 0 0 0 0 0 0 0 0 0 0 0 0 0 0 0 0 0 0 0 0 0 0 0 0 0 0 0 0 0 0 0 0 0 0 50.523837296436064 0 0 -58.00200374853598 0 0 0 0 0 0 0 0 0 0 -6.6376019856646575 14.729863145533276 20.03777641123474 72.8619948655595 0.9708050158439655 2.209660835672158 32.08328665508506 -16.754122671837912 4.991122519362101 18.61394283962722 -45.95239601194126 29.842317890444725 0 0 0 0 0 0 0 0 0 0 0 0 0 0 0 0 0 0 0 0 0 0 0 0 0 0 0 0 0 0 0 0 0 0 0 0 0 0 0 0 0 0 0 0 0
-0.10145335212278224 0.8691212725569036 -0.6144963170036072 7.016786977833627e-15 0.26897450447892296 -180 -43.56639838997 -59.57747259102132 56.99654857839898 25.802405390569007 74.2101235546597 -39.477971915908405 -19.44919339945639 55.243439007536026 3.9426675383777914 0 0 0 58.66939851281041 -61.52121726691563 -66.06669841231748 21.596698308822376 79.85651944290268 77.99387561009463 19.69129652942617 55.193785304967506 -3.558660765878601 0 0 0 -0.21396846706040382 1.048144798448743 -0.043805187918652976 -1.2141577600672881 -13.700320811016882 0.1759923710798667 0 0 0 6.852334670987216 14.807549832872509 -19.95291143920495 -72.82636945866557 0.9365122887130827 -2.209633723759638 -32.809284469550974 -16.730722586457258 -5.120698293780753 -19.985717641982077 -46.66945011848683 -27.85597108684648 0 0 0 0 0 0 0 0 0 0 0 0 0 0 0 0 0 0 0 0 0 0 0 0 0 0 0 0 0 0 0 0 0 0 0 0 0 0 0 0 0 0 0 0 0 0 50.523837296436064 0 0 -58.919755506752416 0 0 0 0 0 0 0 0 0 0 -6.879815253476995 14.258817874462705 19.887033817533716 72.8619948655595 0.9708050158439655 2.209660835672158 32.7466546367367 -16.808986768586664 5.047108915738017 18.598612718706892 -45.97801308717337 29.34879076935881 0 0 0 0 0 0 0 0 0 0 0 0 0 0 0 0 0 0 0 0 0 0 0 0 0 0 0 0 0 0 0 0 0 0 0 0 0 0 0 0 0 0 0 0 0
-0.10858507155592731 0.8812762217398136 -0.6316120947332027 7.017018689174795e-15 0.5379490135962106 -180 -42.78576607146772 -59.5817824295844 56.3014841571068 25.802410946755803 74.2101235546597 -39.477964650453075 -19.289981117683926 55.46406858833116 4.315388111186467 0 0 0 58.27302066656131 -61.460313721127946 -65.75627765748476 21.59670413128879 79.85651944290268 77.9938842622941 19.74540897755852 55.365538019249094 -3.544603536999613 0 0 0 -0.21396846706040382 1.048145225407006 -0.04380519125426341 -1.2094883420844098 -12.744919340410235 0.15520387979373146 0 0 0 7.03980687745645 14.31638225367073 -19.797675225435505 -72.82636945866557 0.9365122887130827 -2.209633723759638 -33.39790443208613 -16.780322127319874 -5.174012038333792 -20.003887137420374 -46.68071373473052 -27.379556206179807 0 0 0 0 0 0 0 0 0 0 0 0 0 0 0 0 0 0 0 0 0 0 0 0 0 0 0 0 0 0 0 0 0 0 0 0 0 0 0 0 0 0 0 0 0 0 50.523837296436064 0 0 -59.83751072706337 0 0 0 0 0 0 0 0 0 0 -7.120254822577004 13.787161791441664 19.738653256080802 72.8619948655595 0.9708060832142358 2.209660835672158 33.41015748078266 -16.86446804268681 5.102444020897865 18.583591290280232 -46.00372068396866 28.85504448008276 0 0 0 0 0 0 0 0 0 0 0 0 0 0 0 0 0 0 0 0 0 0 0 0 0 0 0 0 0 0 0 0 0 0 0 0 0 0 0 0 0 0 0 0 0
-0.12284851042221746 0.905586388497903 -0.6658436501923936 7.017947361096892e-15 1.0760190005378605 -180 -41.22363803889023 -59.57601586902727 54.91057308743629 25.802380341045392 74.2101235546597 -39.477986873801946 -18.96105226496516 55.9036970970499 5.070735827300128 0 0 0 57.484563322503845 -61.33542337121114 -65.1398192666467 21.596690702005606 79.85651944290268 77.99386594946665 19.854586752483232 55.70905184872543 -3.515436079836407 0 0 0 -0.21396846706040382 1.0481442647509145 -0.043805187918652976 -1.2012313554610625 -10.828184861987907 0.11395121023688792 0 0 0 7.409824030278013 13.331648590779714 -19.492853153163008 -72.82636945866557 0.9365122887130827 -2.209633723759638 -34.57693587779217 -16.881201787125292 -5.279198091529932 -20.040659453895035 -46.702944242616425 -26.425739399417207 0 0 0 0 0 0 0 0 0 0 0 0 0 0 0 0 0 0 0 0 0 0 0 0 0 0 0 0 0 0 0 0 0 0 0 0 0 0 0 0 0 0 0 0 0 0 50.523837296436064 0 0 -61.67824054683514 0 0 0 0 0 0 0 0 0 0 -7.596425242094452 12.84115858332048 19.448563587708524 72.86197163707583 0.9708057630031547 2.2096626738870873 34.7396712086609 -16.977427340841025 5.211295580765233 18.554468282141293 -46.05545718020044 27.866047445355914 0 0 0 0 0 0 0 0 0 0 0 0 0 0 0 0 0 0 0 0 0 0 0 0 0 0 0 0 0 0 0 0 0 0 0 0 0 0 0 0 0 0 0 0 0
-0.12998009565922686 0.9177413376808129 -0.6829592937258534 7.01864360790911e-15 1.3451079719648773 -180 -40.4426618534463 -59.56592170892275 54.2152433668733 25.802388722013585 74.2101235546597 -39.47798402499727 -18.791240700951523 56.12265339702599 5.45344648567076 0 0 0 57.092552602769494 -61.27146290518556 -64.8338576977367 21.596690702005606 79.85651944290268 77.99386594946665 19.909658647891977 55.8808161521431 -3.500315385465316 0 0 0 -0.21396846706040382 1.0481442647509145 -0.043805187918652976 -1.197638385283181 -9.867379291091037 0.09347446848860057 0 0 0 7.592399112974 12.838186562309152 -19.343231513539465 -72.82636782703244 0.9365123954490463 -2.2096341503860333 -35.16722012769609 -16.93246860048334 -5.331045357818285 -20.0592646928955 -46.713906032036306 -25.94838980272954 0 0 0 0 0 0 0 0 0 0 0 0 0 0 0 0 0 0 0 0 0 0 0 0 0 0 0 0 0 0 0 0 0 0 0 0 0 0 0 0 0 0 0 0 0 0 50.523837296436064 0 0 -62.60076818723936 0 0 0 0 0 0 0 0 0 0 -7.832194081711374 12.366916781818965 19.306833658309237 72.8619840672989 0.9708054427920735 2.209661688933417 35.40550524727726 -17.034879884579915 5.264779519898577 18.54036964996962 -46.08145685036393 27.370860562340265 0 0 0 0 0 0 0 0 0 0 0 0 0 0 0 0 0 0 0 0 0 0 0 0 0 0 0 0 0 0 0 0 0 0 0 0 0 0 0 0 0 0 0 0 0
-0.13711168089623627 0.9298962868637228 -0.7000749372593132 7.019495275441108e-15 1.6141970477936594 -180 -39.66227091828451 -59.551032111944465 53.520509367416864 25.802397056290356 74.2101235546597 -39.47797918136223 -18.617826803789633 56.34096529170088 5.839517004386239 0 0 0 56.702057149427816 -61.206497960694186 -64.52943821055183 21.596690702005606 79.85651944290268 77.99386594946665 19.96505839384298 56.05256715793904 -3.4848315022775926 0 0 0 -0.21396846706040382 1.0481442647509145 -0.043805187918652976 -1.194403146870466 -8.906573628292739 0.07311540181465946 0 0 0 7.773304044625127 12.344264876237451 -19.195508037962625 -72.82636355526188 0.9365126089209735 -2.209634577012427 -35.75762015685676 -16.984243943263888 -5.382351405630997 -20.078007236258912 -46.72476044711251 -25.470939189342193 0 0 0 0 0 0 0 0 0 0 0 0 0 0 0 0 0 0 0 0 0 0 0 0 0 0 0 0 0 0 0 0 0 0 0 0 0 0 0 0 0 0 0 0 0 0 50.523837296436064 0 0 -63.523291566427226 0 0 0 0 0 0 0 0 0 0 -8.066342232915678 11.892111061839238 19.167353408429403 72.8619948655595 0.9708050158439655 2.209660835672158 36.0714880478887 -17.092923536753837 5.317577243270801 18.52658928574274 -46.10754266545299 26.875448237944983 0 0 0 0 0 0 0 0 0 0 0 0 0 0 0 0 0 0 0 0 0 0 0 0 0 0 0 0 0 0 0 0 0 0 0 0 0 0 0 0 0 0 0 0 0
-0.15137511976252643 0.9542061852295426 -0.7343064927185041 7.021664089381765e-15 2.1524510585979737 -180 -38.10367141447247 -59.5068805934088 52.133311413938046 25.802413771540778 74.2101235546597 -39.47796906710125 -18.259849107177143 56.77571124203508 6.622167630250637 0 0 0 55.925613807523256 -61.073579161954655 -63.92523202129882 21.596690702005606 79.85651944290268 77.99386594946665 20.076865803687525 56.39607181886404 -3.4527532525170472 0 0 0 -0.21396846706040382 1.0481442647509145 -0.043805187918652976 -1.1889780886272794 -6.98114495254413 0.03262097998407366 0 0 0 8.130459372304653 11.354468661179755 -18.905453248836224 -72.82636945866557 0.9365122887130827 -2.209633723759638 -36.939694612815046 -17.08937924121344 -5.4834000084445425 -20.115908025009198 -46.74616683248707 -24.51530720040316 0 0 0 0 0 0 0 0 0 0 0 0 0 0 0 0 0 0 0 0 0 0 0 0 0 0 0 0 0 0 0 0 0 0 0 0 0 0 0 0 0 0 0 0 0 0 50.523842668133156 0 0 -65.37170716845247 0 0 0 0 0 0 0 0 0 0 -8.530223149020845 10.940280137314797 18.894863914355593 72.8619948655595 0.9708050158439655 2.209660835672158 37.405263413406864 -17.21087600121714 5.421190309132935 18.499974417755833 -46.16000775561594 25.883412037722266 0 0 0 0 0 0 0 0 0 0 0 0 0 0 0 0 0 0 0 0 0 0 0 0 0 0 0 0 0 0 0 0 0 0 0 0 0 0 0 0 0 0 0 0 0
